<?xml version="1.0" encoding="utf-8"?>
<!-- Generator: Adobe Illustrator 19.2.0, SVG Export Plug-In . SVG Version: 6.00 Build 0)  -->
<svg version="1.1" id="圖層_1" xmlns="http://www.w3.org/2000/svg" xmlns:xlink="http://www.w3.org/1999/xlink" x="0px" y="0px"
	 viewBox="0 0 510.2 510.2" style="enable-background:new 0 0 510.2 510.2;" xml:space="preserve">
<style type="text/css">
	.st0{fill:#DE551A;stroke:#DE551A;stroke-miterlimit:10;}
	.st1{fill:none;stroke:#B81C25;stroke-miterlimit:10;}
	.st2{fill:#673A1B;stroke:#DE551A;stroke-miterlimit:10;}
	.st3{fill:#DE551A;}
	.st4{fill:#FFFFFF;}
</style>
<g>
	<g id="圖層_1_1_">
		<circle class="st0" cx="254.5" cy="255.1" r="213.3"/>
		<path class="st1" d="M304.6,255.6c0.6,0.3,1.2,0.6,1.8,0.9"/>
	</g>
	<g id="brown">
		<g id="furry">
			<path class="st2" d="M332.6,324c-30.5,36.6-61.6,74.2-77,119.3c-0.8-1-2.1-1.6-3.3-1.7c-4.9-7.6-10-15-15.2-22.4
				c-39.7-55.8-89.9-103.5-147.8-140.1c28.4-11.8,45.3-40.7,59.9-67.8c6.3-11.8,12.4-24.4,12.7-37.8c5.6,11.5,9.7,23.1,15.6,34.4
				c8.8,16.6,18.7,33.6,34.3,44c9.8,6.5,21.2,9.9,32.2,14c17.7,6.5,34.6,14.8,50.6,24.8C307.2,298.5,323.9,311.9,332.6,324z"/>
			<g>
				<g>
					<path class="st3" d="M431.2,164.2c3.2,0,3.2-5,0-5C428,159.2,428,164.2,431.2,164.2L431.2,164.2z"/>
				</g>
			</g>
			<g>
				<g>
					<path class="st3" d="M366.5,208.9c-2.4,1.5-5.6,2.8-8.5,1.6c-2.2-0.9-3.7-3.2-3-5.6c0.9-3.1-4-4.4-4.8-1.3
						c-1.1,4.2,0.8,8.6,4.5,10.8c4.5,2.7,10.1,1.4,14.4-1.2C371.7,211.6,369.2,207.3,366.5,208.9L366.5,208.9z"/>
				</g>
			</g>
			<g>
				<g>
					<path class="st3" d="M351.5,196.7c8.2,16.5,28.4,14.9,43.9,17.1c3.1,0.5,4.5-4.4,1.3-4.8c-13.8-2-33.5,0.1-40.9-14.8
						C354.4,191.3,350,193.9,351.5,196.7L351.5,196.7z"/>
				</g>
			</g>
			<g>
				<g>
					<path class="st3" d="M349.2,206.9c0.7,7.5,7.8,9.3,14.1,10.9c9,2.2,18.2,2.9,27.5,2.5c3.2-0.1,3.2-5.1,0-5
						c-6.3,0.3-12.6,0.1-18.8-0.9c-4.1-0.6-17.2-1.8-17.8-7.5C353.9,203.7,348.9,203.7,349.2,206.9L349.2,206.9z"/>
				</g>
			</g>
			<g>
				<g>
					<path class="st3" d="M360.2,213.2c-5.1-18.2-3.8-37.6,3.8-54.9c1.3-2.9-3-5.5-4.3-2.5c-8.1,18.6-9.7,39.2-4.3,58.8
						C356.2,217.6,361.1,216.3,360.2,213.2L360.2,213.2z"/>
				</g>
			</g>
		</g>
		<path class="st4" d="M344.4,317.9c31.3-27.6,67.8-49.1,107-63c5.8-2.1,12.2-4.3,15.3-9.7c1.9-3.3,2.3-7.3,2.4-11.1
			c0.7-32.8-15.9-63.1-32-91.5c-1.9,17.1-4,34.6-11.8,49.8c-7.9,15.2-22.9,27.9-39.9,27.6c-12.8-0.2-24.4-7.6-35-14.9
			C349.6,244.5,350.4,279.1,344.4,317.9z"/>
		<path class="st4" d="M432.8,345.9c17.3-21.7,23.6-51.7,16.5-78.5c-24.4,5.9-46.6,20.2-62.2,39.8c4,1.2,7.6,1.7,11.6,2.8
			c2.2,0.6,4.4,1.3,6.4,2.3c2.3,1.1,4.3,2.7,6.2,4.4C420.7,325,429.8,333.7,432.8,345.9z"/>
	</g>
	<g id="fox">
		<path class="st4" d="M251.5,392.7c-10.1,1.4-20.2-2.9-28.3-9.1c-8-6.2-14.4-14.3-21.2-21.8c-9-10-18.8-19.2-28.5-28.5
			c-15-14.2-30-28.4-46.7-40.4c-7.7-5.6-16.5-12.3-14.9-21.7c6.7-7.9,13.6-16.2,16.9-26c1.5-4.6,2.3-9.4,4.1-13.9
			c2.4-5.7,3.4-10.6,5.3-16.5c4.3-13.2,9.9-26,16.7-38.2c1.1-2,2.3-4,3.9-5.7c6-6.3,16.4-4,20.8,3.6c3.2,5.6,6.4,11.2,9.6,16.7
			c3,5.2,6,10.5,10.2,14.9s7.7,7.9,13.7,8.3c12.2,0.9,24.4,1.2,36.6,0.9c2.7,0.1,4.9,1.4,5.6,4c6.1,23.2,2.5,47.7,0.5,71.6
			C252.9,325.1,251.2,358.2,251.5,392.7z"/>
		<path class="st4" d="M243.5,392.3c10,1.8,20.3-2.1,28.6-7.9c8.3-5.9,15-13.7,22.1-21c9.4-9.6,19.5-18.5,29.7-27.3
			c15.5-13.5,31.2-27.1,48.3-38.5c8-5.3,17-11.6,15.7-21.1c-6.4-8.2-12.9-16.7-15.8-26.7c-1.3-4.6-1.9-9.5-3.5-14
			c-2.1-5.8-3-10.8-4.7-16.7c-3.8-13.4-8.9-26.4-15.1-38.9c-1-2.1-2.1-4.1-3.6-5.9c-5.8-6.5-16.2-4.7-20.9,2.7
			c-3.4,5.4-6.9,10.9-10.3,16.3c-3.2,5.1-6.5,10.2-10.8,14.5s-8,7.5-14.1,7.7c-12.2,0.4-24.4,0.2-36.6-0.6c-2.7,0-5,1.2-5.7,3.7
			c-7,23-4.5,47.6-3.5,71.6C244.9,324.7,245.3,357.8,243.5,392.3z"/>
		<path class="st3" d="M284.8,271.8c3.9-7.7,10.9-13.3,18.5-15.5c7.6-2.2,15.6-1.1,22.4,2.3c-9.3-0.6-18.6,1.7-27.1,6.8
			c-1.2,0.7-2.4,1.5-3.5,2.2C292.2,269.4,288,270.8,284.8,271.8z"/>
		<path class="st0" d="M247.5,368c3.8-0.7,7.5-2.1,10.9-4.1c2.7-1.7,5.4-4.2,5.4-7.4c0.1-2.1-0.8-4.4-2.5-5.6
			c-4.1-2.9-9.1-4.5-14.2-4.5C244.5,353,244.4,361.6,247.5,368z"/>
		<path class="st0" d="M419.7,289c-4.1,5.3-10.7,12-16.5,17.8c-1.9-1.3-5.1-2-9.3-1.8C402.6,300.5,412.6,294.2,419.7,289z"/>
	</g>
	<g id="little">
		<path class="st3" d="M219.2,267.8c-3.9-7.7-10.9-13.3-18.5-15.5s-15.6-1.1-22.4,2.3c9.3-0.6,18.6,1.7,27.1,6.8
			c1.2,0.7,2.4,1.5,3.5,2.2C211.8,265.3,216,266.7,219.2,267.8z"/>
		<path class="st0" d="M246.6,368.2c-3.8-0.7-7.5-2.2-10.8-4.4c-2.7-1.7-5.3-4.3-5.3-7.5c0-2.1,0.8-4.4,2.6-5.6
			c4.1-2.8,9.2-4.3,14.2-4.2C249.9,353.2,249.8,361.8,246.6,368.2z"/>
		<path class="st0" d="M440.3,307.8c-4.1,4.6-8.7,11.8-12.6,18c2,1.4,3.6,4.1,4.8,7.7C434.2,325,437.3,315,440.3,307.8z"/>
		<path class="st3" d="M415.5,315.3c-2.1-2.1-5.2-3.7-8.6-4.5c10.1-9.2,21.1-18.9,32.4-27.3c-5.2,7.8-10.5,15.6-16.8,22.9
			C420.1,309.1,417.6,312.5,415.5,315.3z"/>
		<path class="st3" d="M424.8,320.8c-1.7-1.7-4.1-3-6.7-3.7c8-7.4,16.8-15.2,25.7-22c-4.2,6.3-8.3,12.6-13.4,18.5
			C428.5,315.8,426.5,318.6,424.8,320.8z"/>
	</g>
</g>
</svg>
